# xmcd
#
# Track frame offsets:
#	150
#	6762
#	25032
#	45623
#	59257
#	71549
#	76620
#	90252
#	107697
#	124569
#	142759
#	162390
#	176506
#	181609
#	195837
#
# Disc length: 2799 seconds
# Revision: 2
# Processed by: cddbd v1.5.2PL0 Copyright (c) Steve Scherf et al.
# Submitted via: dBpowerAMP V12.0
#
DISCID=a20aed0f
DTITLE=Lindi Ortega - Liberty
DYEAR=2018
DGENRE=Americana
TTITLE0=Through the Dust
TTITLE1=Afraid of the Dark
TTITLE2=You Ain't Foolin Me
TTITLE3=Til My Dyin Day
TTITLE4=Nothing's Impossible
TTITLE5=Through the Dust
TTITLE6=The Comeback Kid
TTITLE7=Darkness Be Gone
TTITLE8=Forever Blue
TTITLE9=In the Clear
TTITLE10=Pablo
TTITLE11=Lovers In Love
TTITLE12=Through The Dust
TTITLE13=Liberty
TTITLE14=Gracias a La Vida
EXTD=
EXTT0=
EXTT1=
EXTT2=
EXTT3=
EXTT4=
EXTT5=
EXTT6=
EXTT7=
EXTT8=
EXTT9=
EXTT10=
EXTT11=
EXTT12=
EXTT13=
EXTT14=
PLAYORDER=
